<svg xmlns="http://www.w3.org/2000/svg" version="1.1" xmlns:xlink="http://www.w3.org/1999/xlink" viewBox="0 0 800 800" style="overflow: hidden; display: block;" width="800" height="800"><defs></defs><g id="two-0" transform="matrix(1 0 0 1 0 0)" opacity="1"></g><path d="M 686.3087992335769 323.08591308540946 Q 686.3087992335769 323.08591308540946 691.1305698512763 324.8634707081984 695.9523404689758 326.64102833098735 701.777915455935 329.06566742954425 707.6034904428943 331.49030652810114 715.3384145832458 336.3927146662858 723.0733387235974 341.2951228044705 728.6930399687296 344.50486509343114 734.312741213862 347.7146073823917 741.8507843075665 350.50669890799986 749.388827401271 353.298790433608 752.4351230527502 358.0337907182194 755.4814187042296 362.7687910028307 755.2795358913897 365.23559743229146 755.07765307855 367.70240386175215 754.0986596073096 369.97560917887984 753.1196661360692 372.24881449600747 751.4660628812961 374.0904135040309 749.812459626523 375.9320125120543 747.657379285501 377.1491893086985 745.5022989444789 378.36636610534265 743.0713789977988 378.83168195869547 740.6404590511186 379.2969978120483 738.1882174588984 378.96173402943225 735.7359758666781 378.62647024681627 733.5191629709522 377.5257290347723 731.3023500752262 376.42498782272844 729.5530667713588 374.6740170767251 727.8037834674914 372.9230463307217 726.7051801791633 370.70517315007686 725.6065768908354 368.487299969432 725.273677672338 366.03473626162076 724.9407784538404 363.5821725538096 725.4084379412268 361.15170238645385 725.8760974286133 358.7212322190981 727.0953515501044 356.56732646030173 728.3146056715954 354.4134207015054 730.1577981988189 352.7615938527904 732.0009907260426 351.1097670040753 734.275138914843 350.132965772542 736.5492871036432 349.1561645410086 739.016287038336 348.95666027344896 741.4832869730288 348.7571560058893 743.8848431092271 349.3558368517809 746.2863992454253 349.9545176976725 748.3710680217198 351.2887016144141 750.4557367980142 352.62288553115565 752.0052528432277 354.552883110474 753.5547688884412 356.4828806897923 754.4068974636075 358.80662067566294 755.2590260387736 361.1303606615336 755.3245490571326 363.60454686402807 755.3900720754915 366.0787330665225 754.6621292597246 368.4443175371179 753.9341864439576 370.80990200771333 752.4889935990338 372.81920742788463 751.0438007541102 374.828512848056 749.0326699523869 376.27116440990625 747.0215391506637 377.7138159717565 744.6550363179683 378.4387676759369 742.2885334852731 379.1637193801173 739.814432092885 379.0950685918315 737.340330700497 379.02641780354566 735.0176698172986 378.1713522784492 732.6950089341001 377.31628675335276 730.7669717676849 375.76433207763864 728.8389346012699 374.2123774019245 727.5073871519141 372.12602363981625 726.1758397025585 370.039669877708 725.5801953397042 367.63735881884224 724.98455097685 365.23504775997645 724.9847359461081 365.23733502507315 724.9849209153663 365.23962229016985 725.2593584504752 368.64272912224385 725.5337959855843 372.04583595431785 719.6985444637467 369.770934959915 713.863292941909 367.49603396551214 707.9420700113071 363.6571355993033 702.0208470807053 359.8182372330944 694.3653186745171 355.55304460608284 686.709790268329 351.28785197907126 681.9081371189386 349.45662130229965 677.1064839695481 347.62539062552804 675.7051226818255 346.89652944696945 674.303761394103 346.1676682684109 673.1175570391442 345.124609638892 671.9313526841854 344.0815510093732 671.029247514834 342.78491754544956 670.1271423454826 341.48828408152593 669.5615667565667 340.01343618104283 668.9959911676507 338.53858828055974 668.7998164389714 336.97124417278866 668.6036417102921 335.4039000650176 668.7882695262974 333.83515386314355 668.9728973423029 332.26640766126957 669.5275971256519 330.78743496825274 670.0822969090011 329.3084622752359 670.9748294822234 328.00522105348364 671.8673620554456 326.70197983173136 673.0458533834499 325.65021452228444 674.224344711454 324.5984492128375 675.6203008228854 323.85928846489793 677.0162569343166 323.12012771695834 678.54854479439 322.7365315879257 680.0808326544634 322.35293545889306 681.6603956207571 322.3471985738099 683.2399585870509 322.3414616887267 684.7749923857484 322.71391747562365 686.3100261844461 323.08637326252057 686.3094127090114 323.086143173965 Z" fill="hsl(167, 7%, 91%)"></path><path d="M 655.1183188776687 382.9289222371772 Q 655.1183188776687 382.9289222371772 654.5366006655167 388.0440269894763 653.9548824533649 393.15913174177547 652.8874566157025 399.61838191686365 651.8200307780401 406.0776320919518 649.865154590972 413.9769388156375 647.9102784039038 421.87624553932324 645.6496441654244 428.5480071940291 643.3890099269449 435.21976884873493 640.2757194102238 443.55047088240536 637.1624288935027 451.8811729160758 634.3033123347024 459.6480642854209 631.444195775902 467.414955654766 632.2321683523905 467.9737612938274 633.0201409288791 468.5325669328888 632.6206350961945 470.9457679196498 632.2211292635099 473.3589689064109 631.0719751889845 475.5182717628568 629.9228211144592 477.6775746193027 628.1443355330432 479.356899766363 626.3658499516273 481.0362249134232 624.1442407731695 482.05974656490184 621.9226315947117 483.0832682163805 619.4905018866444 483.34382338518424 617.0583721785772 483.60437855398794 614.6703665633551 483.0746870451631 612.2823609481329 482.54499553633826 610.188504244042 481.2805161906838 608.094647539951 480.01603684502936 606.5141670966339 478.1491609838255 604.9336866533168 476.28228512262154 604.0320591903953 474.00847514134364 603.1304317274738 471.7346651600657 603.0020578783224 469.291989563981 602.8736840291708 466.8493139678963 603.5320045696828 464.49352153671873 604.1903251101947 462.1377291055412 605.5664137059989 460.11547192868386 606.9425023018032 458.09321475182645 608.8922821136669 456.61622368953033 610.8420619255304 455.13923262723415 613.1613904924593 454.3621490336094 615.4807190593883 453.58506543998465 617.9267620681819 453.5892501724139 620.3728050769755 453.5934349048432 622.6894611789204 454.37844982073653 625.0061172808653 455.16346473662986 626.95083197055 456.64711856706936 628.8955466602347 458.1307723975089 630.2647077962945 460.15772619480106 631.6338689323543 462.18467999209315 632.2841249824203 464.54271115859757 632.9343810324862 466.900742325102 632.7976500164654 469.3429643752259 632.6609190004446 471.7851864253498 631.751516691808 474.0558980657612 630.8421143831714 476.32660970617263 629.2552554436921 478.1880668287108 627.6683965042129 480.04952395124906 625.5702254837445 481.3068315038073 623.472054463276 482.5641390563656 621.0822504215248 483.08565660629415 618.6924463797737 483.60717415622264 616.2612224307582 483.33829867837665 613.8299984817427 483.06942320053065 611.6119044147056 482.03830602841686 609.3938103476684 481.00718885630306 607.6210811969484 479.3217882300303 605.8483520462282 477.63638760375744 604.7065930218607 475.47316541379894 603.5648339974931 473.3099432238405 603.1735875707245 470.8953894045202 602.7823411439558 468.4808355851999 602.7823372641047 468.48310342020073 602.7823333842537 468.4853712552016 602.9118514668793 465.53239179755656 603.0413695495049 462.5794123399115 604.7833067361919 455.97518989594846 606.5252439228788 449.37096745198534 609.403990498746 442.6448184475407 612.2827370746134 435.918669443096 615.5402740109586 427.81929628098504 618.7978109473038 419.7199231188741 621.5402100726344 411.4224586854482 624.2826091979649 403.12499425202236 625.9196189875345 396.5885716665004 627.5566287771039 390.05214908097844 628.1778341489364 384.94235072658813 628.7990395207688 379.8325523721978 629.1755074741752 378.28034441853424 629.5519754275815 376.72813646487066 630.2889824840549 375.31113320091293 631.0259895405283 373.8941299369552 632.0807008153183 372.69468765898216 633.1354120901083 371.4952453810091 634.4465277143688 370.5830757305721 635.7576433386292 369.670906080135 637.2489612106756 369.0990244001755 638.740279082722 368.527142720216 640.3251237377618 368.328786800843 641.9099683928016 368.13043088147 643.4962285850202 368.31712917803713 645.0824887772387 368.50382747460435 646.5779709897342 369.0647290733433 648.0734532022299 369.6256306720822 649.3912399385472 370.52813594572024 650.7090266748645 371.43064121935834 651.7725281079729 372.6222965189877 652.8360295410813 373.8139518186171 653.5834349177201 375.2254980822337 654.3308402943588 376.6370443458502 654.7187103789212 378.18644243829124 655.1065804634835 379.73584053073233 655.1123722284306 381.3330393620671 655.1181639933775 382.9302381934019 655.118241435523 382.92958021528955 Z" fill="hsl(167, 7%, 91%)"></path><path d="M 632.0767658077372 301.59298451235264 Q 632.0767658077372 301.59298451235264 626.6357097281261 304.85758684580424 621.1946536485152 308.12218917925577 615.17148728823 311.21689316087793 609.1483209279447 314.31159714250003 603.1304074578402 318.4263862704506 597.1124939877358 322.5411753984012 589.5346055975426 327.07752785904336 581.9567172073495 331.61388031968545 575.7603376705857 335.68835019092785 569.563958133822 339.7628200621703 566.8317129088167 343.8457562195749 564.0994676838114 347.9286923769795 561.9850188105272 348.97793416450077 559.8705699372431 350.02717595202205 557.5317779472941 350.34632230428736 555.1929859573452 350.6654686565526 552.8747229894602 350.2211048662333 550.5564600215754 349.77674107591395 548.501448820454 348.61539214915706 546.4464376193326 347.45404322240023 544.8698384002025 345.69730269840363 543.2932391810724 343.94056217440703 542.3601222983582 341.7723612497676 541.427005415644 339.60416032512813 541.2350684532848 337.25151020900506 541.0431314909257 334.898860092882 541.6124702995471 332.60808387347265 542.1818091081684 330.31730765406337 543.4528137642168 328.32825020624614 544.7238184202652 326.33919275842896 546.5634144007396 324.86010892205053 548.403010381214 323.3810250856721 550.6185915013526 322.56677532884146 552.8341726214912 321.7525255720108 555.193766953159 321.6883620592092 557.5533612848267 321.62419854640757 559.8099186786255 322.3168392143628 562.0664760724244 323.00947988231803 563.9837343735503 324.3864050702558 565.9009926746761 325.76333025819366 567.2782144328941 327.680375535464 568.655436191112 329.59742081273436 569.3484259247855 331.8538710327563 570.0414156584588 334.11032125277814 569.9776171595406 336.46992548187023 569.9138186606224 338.82952971096233 569.0999116487903 341.04523676346366 568.2860046369584 343.26094381596505 566.807205391202 345.10076857858894 565.3284061454457 346.9405933412128 563.3395453371608 348.2119056756459 561.3506845288758 349.483218010079 559.059996409698 350.05291117931233 556.7693082905201 350.6226043485456 554.4166285112103 350.431031327376 552.0639487319005 350.2394583062064 549.8956034863995 349.3066768405207 547.7272582408984 348.373895374835 545.9702738487978 346.79756793032095 544.2132894566971 345.22124048580685 543.0516226476486 343.166408962015 541.8899558386001 341.1115774382232 541.4452334341614 338.7933832381175 541.0005110297227 336.47518903801176 541.3192955830337 334.1363477062871 541.6380801363448 331.7975063745624 542.6869948205231 329.68289521604436 543.7359095047015 327.5682840575264 545.4051326754269 325.89930341871514 547.0743558461523 324.2303227799039 547.0725784684192 324.23159966330127 547.0708010906861 324.23287654669866 545.711855657077 324.012694367158 544.3529102234678 323.79251218761743 551.6517781451591 318.73436289763123 558.9506460668504 313.676213607645 565.6166512302968 309.99534617025193 572.2826563937434 306.31447873285884 580.3671988874805 301.4637931582204 588.4517413812176 296.613107583582 598.0244514591247 291.23813040577636 607.5971615370318 285.86315322797077 612.9824879037099 282.51164075429347 618.3678142703878 279.1601282806161 619.8095852430574 278.5028858046559 621.2513562157269 277.8456433286957 622.8085226185892 277.5525494808667 624.3656890214517 277.2594556330376 625.9477482700095 277.3475450415465 627.5298075185672 277.4356344500553 629.0448102549615 277.89978735434073 630.5598129913557 278.36394025862614 631.919707185365 279.1771800700829 633.2796013793745 279.99041988153965 634.4053499165489 281.10548106411596 635.5310984537232 282.2205422466923 636.3572727761889 283.5726173920659 637.1834470986546 284.9246925374395 637.6620299159722 286.4351989746343 638.1406127332898 287.9457054118291 638.2437887896308 289.52685243574456 638.3469648459718 291.10799945965994 638.0687375440939 292.6678907309761 637.7905102422161 294.2277820022923 637.1470501659769 295.6757565670292 636.5035900897377 297.1237311317661 635.5322951690011 298.3756326401883 634.5610002482645 299.6275341486106 633.3183221894598 300.61060202622843 632.0756441306551 301.5936699038462 632.0762049691962 301.5933272080994 Z" fill="hsl(167, 7%, 91%)"></path></svg>