<svg xmlns="http://www.w3.org/2000/svg" version="1.1" xmlns:xlink="http://www.w3.org/1999/xlink" xmlns:svgjs="http://svgjs.dev/svgjs" viewBox="0 0 600 600"><path d="M408.8679369330573 533.0477471054855C367.02693097195623 568.0895892482263 199.40141217312214 553.968264073259 154.68383964301142 544.031023472673C109.96626711290071 534.0937828720871 135.72463401557002 495.5215884547693 140.56250175238642 473.4243035019697C145.40036948920283 451.3270185491706 163.57506227891633 424.9148837428555 183.71104606390986 411.44731375587645C203.8470298489034 397.97974376889726 243.33447440863642 405.3019356430835 261.37840446234736 392.6188835800952C279.4223345160583 379.9358315171069 275.36897961696974 350.12410717221763 291.9746263861755 335.34900137794676C308.5802731553821 320.5738955836759 342.05307690701306 304.2297539414233 361.0122850775873 303.9682488144702C379.97149324816155 303.7067436875171 397.7539334337084 295.6000542343921 405.7298754096198 333.779970616228C413.7058173855314 371.95988699806395 450.70894289415764 498.00590496274464 408.8679369330573 533.0477471054855C367.02693097195623 568.0895892482263 199.40141217312214 553.968264073259 154.68383964301142 544.031023472673 " fill="#d2dde262" transform="matrix(0.26938531766795976,1.5277600545622403,-1.5277600545622403,0.26938531766795976,747.6683022591222,-71.93388007802776)"></path><path d="M523.6002899826514 520.655316489451C481.7592840215511 555.697158632192 314.133765222723 541.5758334572245 269.4161926926123 531.6385928566388C224.6986201625016 521.7013522560526 250.4569870651709 483.1291578387345 255.2948548019873 461.031872885935C260.1327225388037 438.9345879331355 278.3074153285172 412.52245312682044 298.44339911351074 399.05488313984125C318.57938289850426 385.58731315286207 358.0668274582373 392.9095050270483 376.11075751194824 380.22645296406C394.1546875656592 367.5434009010717 390.1013326665706 337.73167655618244 406.70697943577636 322.95657076191156C423.3126262049821 308.18146496764075 456.7854299566097 291.8373233253881 475.7446381271826 291.575818198435C494.70384629775555 291.3143130714819 512.4862864833025 283.2076236183569 520.4622284592139 321.3875400001928C528.4381704351252 359.56745638202875 565.4412959437517 485.6134743467097 523.6002899826514 520.655316489451C481.7592840215511 555.697158632192 314.133765222723 541.5758334572245 269.4161926926123 531.6385928566388 " fill-opacity="1" fill="#ee816b" opacity="1" stroke-opacity="1" stroke-width="0" stroke="hsl(340, 45%, 30%)" transform="matrix(1.1318373894256528,1.2150155430642192e-16,-1.2150155430642192e-16,1.1318373894256528,39.13249114743337,34.115182880333634)"></path></svg>